<?xml version="1.0" encoding="UTF-8"?>
<svg id="Layer_2" data-name="Layer 2" xmlns="http://www.w3.org/2000/svg" viewBox="0 0 1699.92 331">
  <path id="R2" d="m1699.92.05c-53.43.3-17.22.05-111.71-.05-59.52-.06-107.8,48.17-107.8,107.7,0,95.6,0,220.3,0,220.3h108.97v-178.98c0-22.09,17.91-40,40-40h70.54V.05Z"/>
  <rect id="I" x="1371.4" y="0" width="97" height="328"/>
  <path d="m1255.4,123c-57.44,0-104,46.56-104,104s46.56,104,104,104,104-46.56,104-104-46.56-104-104-104Zm0,137.27c-18.37,0-33.27-14.89-33.27-33.27s14.89-33.27,33.27-33.27,33.27,14.89,33.27,33.27-14.89,33.27-33.27,33.27Z"/>
  <path id="E2" d="m885.28,253h56.72c2.14-8.31,3.28-17.02,3.28-26,0-57.44-46.56-104-104-104s-104,46.56-104,104,46.56,104,104,104c42.49,0,79.02-25.48,95.16-62h-95.66c-13.45,0-25.43-6.25-33.21-16h77.71Zm-82.77-45c6.88-14.2,21.43-24,38.27-24s31.39,9.8,38.27,24h-76.54Z"/>
  <path d="m1143.85,0l-77.85,136.66V0h-109v.05C903.57.35,778.39.09,683.9,0c-59.52-.06-107.8,48.17-107.8,107.7v220.3h108.97v-178.98c0-22.09,17.91-40,40-40h231.94v218.98h109L1252.85,0h-109Z"/>
  <path id="e" d="m463,253h56.72c2.14-8.31,3.28-17.02,3.28-26,0-57.44-46.56-104-104-104s-104,46.56-104,104,46.56,104,104,104c42.49,0,79.02-25.48,95.16-62h-95.66c-13.45,0-25.43-6.25-33.21-16h77.71Zm-82.77-45c6.88-14.2,21.43-24,38.27-24s31.39,9.8,38.27,24h-76.54Z"/>
  <path id="h" d="m194,131.47V61h-66v267h66v-114c0-12.43,10.07-22.5,22.5-22.5s22.5,10.07,22.5,22.5v114h66v-129c0-71.33-65.21-89.66-111-67.53Z"/>
  <polygon id="t" points="91 127 91 61 58 61 25 61 25 127 0 127 0 190 25 190 25 328 58 328 91 328 91 190 116 190 116 127 91 127"/>
</svg>