<?xml version="1.0" encoding="UTF-8"?>
<svg id="Layer_1" data-name="Layer 1" xmlns="http://www.w3.org/2000/svg" viewBox="0 0 1394.9 1601.46">
  <path d="m825.16,1566.51c-26.07,1.81-52.28,1.2-77.8,8.78-24.29,6.4-49.14,10.67-73.75,15.8-14.53,3.03-29.03,6.28-43.66,8.79-14.37,2.47-28.89,1.99-43.16-1.01-17.23-3.63-34.51-6.95-51.98-8.96-74.35-3.89-149.48-11.01-216.57-46.57-36.79-21.01-82.96-20.8-116.3-48.33-28.32-18.7-57.33-37.49-79.97-63.39-24.88-33.73-61.03-59.29-80.78-96.34-24.12-50.25-30.55-105.49-39.04-159.74-9.06-57.14,12.44-111.08,34.73-162.41,4.82-11.83,9.42-23.71,10.94-36.5,2.32-22.1,18.77-38.88,23.07-60.13,13.32-40.28,27.41-80.85,46.39-120.02,20.13-44.59,43.04-88.52,71.07-128.75,2.63-3.7,2.49-6.75-.17-10.02-45.69-50.16-77.19-112.77-82.86-180.78-1.74-6.04.27-12.48-1.29-18.13-3.8-13.82-1.37-24.18-2.01-36.13,1.22-60.39,21.72-118.95,49.05-171.89,40.54-63.17,100.72-110.5,165.85-145.36,20.65-4.77,38.14-18.55,61.21-13.2,47.54-7.71,97.67-2.75,145.02,6.65,74.08,28.76,107.95,45.48,158.29,108.84,5.85,5.96,10.03-4.09,13.01-8.12,12.16-20.93,27.65-38.81,45.76-55.03,62.61-56.56,135.56-97.43,212.29-130.99,56.53-17.65,120.38-23.07,169.78,14.92,51.08,26.86,93.52,64.45,130.85,108.04,13.09,13.47,13.65,33.12,28.82,45.1,30.29,23.8,20.03,63.36,21.79,97.27,2.56,58.91-10.23,118.78-34.18,172.7-8.36,21.07-8.8,44.45-21.71,64.01-6.57,19.92-29.32,36.65-27.21,58.14,28.2,60.92,62.09,118.67,93.95,177.06,32.49,86.2,76.97,173.48,77.55,267.33,3.61,45.39,6.52,93.42-10.23,136.68-7.24,12.53,6.98,24.2,2.08,38-4.16,22.36-10.07,48.16-30.55,61.28-9.71,4.2-15.22,12.31-19.51,21.55-9.79,25.75-28.44,44.53-47.07,63.86-4.74,10.6-13.09,17.88-21.39,25.43-48.17,49.1-108.68,84.97-169.87,115.42-37.51,13.68-76.97,22.57-110.16,45.95-48.91,25.45-106.15,33.18-160.27,40.23Zm490.35-557.15c-.43-83.55-35.62-162.02-66.03-238.01-42.43-63.46-70.53-134.32-107.26-200.82-20.88-27.24,36.73-63.22,45.27-99.29,19.26-51.87,38.34-104.01,46.53-159,15.44-112.79-69.08-186.87-162.04-232.28-52.18-22.25-101.01,26.74-145.7,47.73-72.95,31.78-146.22,76.36-185.46,148.11-6.98,12.35-15.2,21.18-30.81,19.66-12.24.19-25.38,3.59-36.57-3.1-44.81-21.69-58.76-79.71-100.95-103.58-101.33-51.6-216.35-42.14-294.77,42.98-60.63,44.6-78.78,125.38-92.08,195.59-10.21,29.54,1.29,57.2,7.31,86.91,7.72,18.21,7.2,37.3,15.02,54.58,6.48,39.52,67.35,84.31,59.11,113.31-13.7,40.53-42.13,74.16-55.22,114.44-4.09,16.9-14.87,31.26-19.86,47.96-5.75,22.91-30.07,35.08-32.76,58.62-4.08,26.05-24.78,45.2-27.75,70.84-2.26,17.89-14.06,33.74-14.67,52.31-1.48,29.6-26.53,50.6-26.82,80.31-1.2,22.49-13.53,43.67-7.01,66.86,7.69,27.53,8.48,56.28,13.34,84.39-.65,45.23,28.15,70.93,55.17,104.04,35.87,41.38,76.62,79.4,130.4,94.64,39.45,11.86,72.77,37.26,111.69,50.33,52.41,19.06,109.34,16.33,163.94,24.15,19.57,1.69,38.86,7.15,58.93,3.11,26.29-5.29,53.32-6.36,79.17-14.46,71.68-21.38,147.94-16.28,219.33-39.09,50.11-9.9,90.91-42.07,139.63-55.9,11.3-3.24,21.34-8.85,30.9-15.5,64.2-44.22,128.05-72.4,170.34-143.1,19.41-18.91,41.92-40.92,45.51-68.8,15.9-61.32,22.18-124.9,14.14-187.92Z"/>
  <path d="m686.87,875.75c44.47-3.12,81.01,1.95,124.04-1.94,23.85-2.87,46.53,2.24,69.55,8.23,40.58,15.37,79.92,32.83,122.03,43.67,21.79,5.74,42.11,14.59,60.42,27.41,25.88,32.59,72.3,49.42,84.95,91.16-5.01,76.19-81.44-8.41-106.01-28.77-26.48-18.05-60.96-19.74-90.13-32.56-29-12.05-56.72-27.26-88.26-31.31-36.02,1.81-72.59,6.39-108.65-1.11-45.46-4.35-90.54,11.84-130.33,32.26-30.29,17.26-66.44,21.3-95.79,39.84-39.39,22.4-84.18,38.8-116.67,71.37-2.68,3.49-5.81,6.96-10.47,8.48-20.46,10.47-23.55,38.17-41.99,52.26-29.73,27.2-76.57,1.73-70.7-39.38,11.76-21.67,28.44-43.15,46.01-61,29.11-28.61,54.54-60.25,92.47-77.27,43.74-20.33,83.17-49.34,131.28-58.99,50.36-24.96,67.74-40.78,128.25-42.33Z"/>
  <path d="m343.61,438.14c-1.9-5.99-2.2-13.27-2.87-21.3-2.46-29.64.94-57.75,23.62-78.38,43.69-34.67,93.7,14.8,115.45,52.33,16.91,35.27-13.36,68.25-32.89,95.17-32.2,33.62-89.83-6.32-103.32-47.82Z"/>
  <path d="m1050.43,337.05c2.89,26.27-17.05,40.37-32.33,62.01-29.18,41.45-90.81,2.43-103.07-35.76-14.38-46.93,39-116.45,88.99-90.65,25.13,12.91,44.66,33.44,46.41,64.41Z"/>
</svg>